<svg width="72" height="21" viewBox="0 0 72 21" fill="none" xmlns="http://www.w3.org/2000/svg">
<path fill-rule="evenodd" clip-rule="evenodd" d="M12 2.5H8V6.5H4H0V10.5V14.5V18.5H4H8V14.5H12H16V10.5V6.5V2.5H12ZM4 14.5H8V10.5H12V6.5H8V10.5H4V14.5Z" fill="white"/>
<path d="M28.112 6.784V9.448H31.952V11.288H28.112V14.12H32.744V16H25.488V4.912H32.736L32.472 6.784H28.112ZM39.5458 3.864L42.0738 4.128V16H39.8338L39.7058 15.064C39.4711 15.3947 39.1591 15.68 38.7698 15.92C38.3804 16.1547 37.9084 16.272 37.3538 16.272C36.6498 16.272 36.0658 16.0827 35.6018 15.704C35.1431 15.3253 34.7991 14.7973 34.5698 14.12C34.3458 13.4373 34.2338 12.64 34.2338 11.728C34.2338 10.8533 34.3698 10.0773 34.6418 9.4C34.9138 8.72267 35.3031 8.192 35.8098 7.808C36.3164 7.41867 36.9191 7.224 37.6178 7.224C37.9964 7.224 38.3484 7.29067 38.6738 7.424C38.9991 7.55733 39.2898 7.752 39.5458 8.008V3.864ZM38.2977 9.072C37.8604 9.072 37.5084 9.28 37.2418 9.696C36.9751 10.1067 36.8418 10.7893 36.8418 11.744C36.8418 12.4427 36.8978 12.9867 37.0098 13.376C37.1218 13.76 37.2764 14.0293 37.4738 14.184C37.6711 14.3387 37.8978 14.416 38.1538 14.416C38.4364 14.416 38.6924 14.328 38.9218 14.152C39.1564 13.976 39.3644 13.736 39.5458 13.432V9.768C39.3698 9.54933 39.1831 9.37867 38.9858 9.256C38.7884 9.13333 38.5591 9.072 38.2977 9.072ZM51.8515 6.144L52.4435 8C52.1448 8.11733 51.7955 8.20267 51.3955 8.256C50.9955 8.30933 50.5288 8.336 49.9955 8.336C50.5288 8.56533 50.9342 8.85067 51.2115 9.192C51.4942 9.528 51.6355 9.97067 51.6355 10.52C51.6355 11.0693 51.4888 11.56 51.1955 11.992C50.9022 12.4187 50.4862 12.7547 49.9475 13C49.4088 13.2453 48.7715 13.368 48.0355 13.368C47.8542 13.368 47.6835 13.36 47.5235 13.344C47.3635 13.328 47.2062 13.304 47.0515 13.272C46.9608 13.32 46.8915 13.3893 46.8435 13.48C46.7955 13.5707 46.7715 13.664 46.7715 13.76C46.7715 13.8933 46.8248 14.0133 46.9315 14.12C47.0435 14.2267 47.3022 14.28 47.7075 14.28H49.0995C49.7608 14.28 50.3315 14.3867 50.8115 14.6C51.2968 14.8133 51.6728 15.104 51.9395 15.472C52.2062 15.84 52.3395 16.2613 52.3395 16.736C52.3395 17.6053 51.9582 18.2907 51.1955 18.792C50.4328 19.2933 49.2995 19.544 47.7955 19.544C46.7075 19.544 45.8648 19.432 45.2675 19.208C44.6755 18.9893 44.2622 18.6747 44.0275 18.264C43.7982 17.8587 43.6835 17.376 43.6835 16.816H45.9235C45.9235 17.0613 45.9715 17.2613 46.0675 17.416C46.1688 17.576 46.3582 17.6933 46.6355 17.768C46.9182 17.8427 47.3262 17.88 47.8595 17.88C48.3982 17.88 48.8088 17.8373 49.0915 17.752C49.3742 17.6667 49.5662 17.5493 49.6675 17.4C49.7742 17.256 49.8275 17.0933 49.8275 16.912C49.8275 16.6613 49.7288 16.4587 49.5315 16.304C49.3342 16.1493 49.0222 16.072 48.5955 16.072H47.2435C46.3262 16.072 45.6595 15.904 45.2435 15.568C44.8275 15.2267 44.6195 14.8293 44.6195 14.376C44.6195 14.0613 44.7022 13.7627 44.8675 13.48C45.0382 13.1973 45.2755 12.96 45.5795 12.768C45.0355 12.48 44.6462 12.1413 44.4115 11.752C44.1768 11.3573 44.0595 10.8853 44.0595 10.336C44.0595 9.696 44.2222 9.14667 44.5475 8.688C44.8728 8.224 45.3208 7.86667 45.8915 7.616C46.4675 7.36533 47.1235 7.24 47.8595 7.24C48.4942 7.25067 49.0462 7.208 49.5155 7.112C49.9848 7.01067 50.4062 6.87467 50.7795 6.704C51.1528 6.528 51.5102 6.34133 51.8515 6.144ZM47.9235 8.88C47.5235 8.88 47.2062 9.008 46.9715 9.264C46.7368 9.51467 46.6195 9.86133 46.6195 10.304C46.6195 10.7733 46.7395 11.1333 46.9795 11.384C47.2195 11.6347 47.5342 11.76 47.9235 11.76C48.3448 11.76 48.6648 11.6347 48.8835 11.384C49.1075 11.1333 49.2195 10.7627 49.2195 10.272C49.2195 9.79733 49.1102 9.448 48.8915 9.224C48.6728 8.99467 48.3502 8.88 47.9235 8.88ZM61.0533 13.552C61.0533 13.872 61.0959 14.104 61.1813 14.248C61.2719 14.392 61.4159 14.5013 61.6133 14.576L61.0933 16.24C60.5919 16.192 60.1679 16.0827 59.8213 15.912C59.4799 15.736 59.2106 15.472 59.0133 15.12C58.6879 15.5093 58.2719 15.8 57.7653 15.992C57.2586 16.1787 56.7413 16.272 56.2133 16.272C55.3386 16.272 54.6399 16.024 54.1173 15.528C53.5999 15.0267 53.3413 14.384 53.3413 13.6C53.3413 12.6773 53.7013 11.9653 54.4213 11.464C55.1466 10.9627 56.1653 10.712 57.4773 10.712H58.6213V10.392C58.6213 9.94933 58.4773 9.62133 58.1893 9.408C57.9066 9.19467 57.4906 9.088 56.9413 9.088C56.6693 9.088 56.3199 9.128 55.8933 9.208C55.4666 9.28267 55.0399 9.392 54.6133 9.536L54.0293 7.856C54.5786 7.648 55.1493 7.49067 55.7413 7.384C56.3386 7.27733 56.8719 7.224 57.3413 7.224C58.6053 7.224 59.5386 7.48267 60.1413 8C60.7493 8.512 61.0533 9.25333 61.0533 10.224V13.552ZM57.0853 14.464C57.3573 14.464 57.6426 14.384 57.9413 14.224C58.2399 14.0587 58.4666 13.8267 58.6213 13.528V12.152H57.9973C57.2933 12.152 56.7759 12.2613 56.4453 12.48C56.1146 12.6933 55.9493 13.008 55.9493 13.424C55.9493 13.7493 56.0479 14.0053 56.2453 14.192C56.4479 14.3733 56.7279 14.464 57.0853 14.464ZM63.575 16V14.304H64.695V9.184H63.575V7.504H66.623L67.087 9.416C67.391 8.68533 67.7777 8.14133 68.247 7.784C68.7217 7.42667 69.3003 7.248 69.983 7.248C70.271 7.248 70.527 7.272 70.751 7.32C70.975 7.36267 71.1857 7.424 71.383 7.504L70.615 9.592C70.4603 9.54933 70.3057 9.51733 70.151 9.496C69.9963 9.47467 69.8257 9.464 69.639 9.464C69.0843 9.464 68.5963 9.69067 68.175 10.144C67.759 10.5973 67.4417 11.1733 67.223 11.872V14.304H68.903V16H63.575ZM69.327 11.056V8.576L69.703 7.504H71.383L70.911 11.056H69.327Z" fill="white"/>
</svg>
